<?xml version="1.0" encoding="UTF-8"?>
<!DOCTYPE svg PUBLIC "-//W3C//DTD SVG 1.1//EN" "http://www.w3.org/Graphics/SVG/1.1/DTD/svg11.dtd">
<!-- Creator: CorelDRAW 2020 (64 Bit) -->
<svg xmlns="http://www.w3.org/2000/svg" xml:space="preserve" width="58.593mm" height="74.4512mm" version="1.1" style="shape-rendering:geometricPrecision; text-rendering:geometricPrecision; image-rendering:optimizeQuality; fill-rule:evenodd; clip-rule:evenodd"
viewBox="0 0 396.12 503.33"
 xmlns:xlink="http://www.w3.org/1999/xlink"
 xmlns:xodm="http://www.corel.com/coreldraw/odm/2003">
 <defs>
  <style type="text/css">
   <![CDATA[
    .str0 {stroke:black;stroke-width:1.35;stroke-miterlimit:22.9256}
    .fil7 {fill:black}
    .fil0 {fill:#04FCE3}
    .fil2 {fill:#F50A45}
    .fil1 {fill:#F50B4B}
    .fil5 {fill:#F9124B}
    .fil3 {fill:#FB0A4B}
    .fil6 {fill:#FC054B}
    .fil4 {fill:#FC0A45}
   ]]>
  </style>
 </defs>
 <g id="Camada_x0020_1">
  <metadata id="CorelCorpID_0Corel-Layer"/>
  <path class="fil0" d="M267.24 145.43l19.33 0.11c-11.13,-29.8 -26.76,-26.98 -35.75,-47.24l13.28 -11.85c-18.15,-4.45 -12.34,5.46 -22.71,-9.25 -5.46,-7.75 -9.81,-9.54 -15.55,-13.47 2.26,-4.58 -0.98,-3.53 2.81,-5.42l-21.77 1.57c7.29,17.11 0.26,-5.81 19.97,24.08l18.23 1.97 -13.45 12.37c4.96,12.4 7.77,12.98 14.37,17.61 3.84,2.7 -0.41,-2.08 5.86,4.68 4.54,4.89 13.53,19.82 15.37,24.84z"/>
  <path class="fil0" d="M335.79 281.3l19.13 -0.25c3.16,-6.35 7.04,-12.49 11.41,-19 -3.63,-8.99 -5.68,-10.97 -10.67,-17.14 4.74,-12.75 -5.19,13.05 4.02,-4.39l0.59 -5.49c-0.28,-0.86 -7.31,-10.56 -8.81,-12.8 -9.94,-14.73 -7.21,-13.89 -27.79,-14.53 3.87,8.28 6.11,11.75 12.07,19.73 10.29,13.78 2.59,13.12 0.69,18.05l11.38 16.22 -12.03 19.59z"/>
  <path class="fil0" d="M223.62 454.92c25.08,-0.3 21.37,-3.37 32.75,-19.96 7.64,-11.14 16.21,-20.7 21.9,-34.11l-13.28 -0.39c5.02,-11.34 15.97,-21.19 20.27,-33.21l-10.88 -0.02c-2.97,9.21 -8.63,15.22 -14.34,23.4 -15.35,21.97 7.85,-3.63 -6.04,20.04l-30.37 44.25z"/>
  <path class="fil1" d="M11.8 281.53l17.21 -0.59c-1.85,-4.54 -8.58,-15.51 -11.13,-18.89 15.32,-36.81 19.61,-1.69 45.16,-54.23l-17.74 0.29c-4.35,11.18 -14.35,28.74 -26.19,32.88 -4.89,1.71 -10.23,-1.48 -19.11,21.06 4.74,7.91 7.19,10.54 11.8,19.49z"/>
  <path class="fil0" d="M199.22 491.72c6.49,3.8 1.33,0.81 6.22,5.19 6.15,5.51 -1.11,1.83 8.01,6.43 3.69,-21.92 27.91,-27.23 30.49,-41.44l-34.95 -0.03c-0.95,8.2 -3.12,5.75 -3.03,10.02 0.13,5.82 0.46,1.38 3.57,7.97 -8.5,6.56 -4.06,6.58 -10.31,11.86z"/>
  <path class="fil2" d="M170.97 503.24c10.75,-4.82 2.15,-2.03 11.75,-9.77 -3.96,-9.32 -6.58,-13.41 -14.57,-17.53 -15.33,-7.91 -11.75,-12.36 -15.84,-13.97 -12.12,-4.77 -35.46,8.65 -43.48,-7.04l-17.71 -0.27c4.26,9.18 2.77,7.57 16.29,7.58 43.67,0.05 24.01,1.07 36.87,10.6 0.06,0.05 23.31,9.52 26.69,30.4z"/>
  <path class="fil2" d="M39.28 207.69c4.04,-8.87 10.71,-15.17 13.88,-23.86l-31.98 0.49c-3.85,8.5 -10.15,14.45 -14.4,22.93l32.5 0.45z"/>
  <path class="fil0" d="M294.5 361.65c11.07,0.62 14.2,3.15 21.08,-4.4 -0.43,-8.27 5.31,-1.16 -8.3,-6.62 4.78,-8.64 11.38,-15.46 14.81,-24.95l-19.08 0.03c-3.9,9.85 -10.68,15.68 -14.84,24.92 12.04,4.37 4.97,0.32 9.66,5.71l-3.33 5.31z"/>
  <path class="fil3" d="M121.6 96.28c13.7,1.34 8.86,1 23.9,-5.4 7.66,-3.26 1.6,1.07 6.99,-3.31 -5.7,-3.46 -5.69,-1.88 -14.36,-3.12 16.75,-31.41 1.54,-21.49 17.73,-25.84l-23.21 0.69c-6.44,9.7 -1.9,14.01 -12.27,21.58l13.96 6.68c-12.12,8.69 -7.92,-3.06 -12.74,8.72z"/>
  <path class="fil3" d="M80.14 361.94l17.64 0.15c-10.76,-20.6 -9.95,-1.92 -22.12,-14.42 -3.22,-3.31 -11.58,-16.79 -13.73,-21.61l-17.48 -0.49c4.89,10.98 8.19,15.05 16.69,25.9 15.06,1.96 14.8,-2.9 19,10.46z"/>
  <path class="fil4" d="M96.59 129.92l-9.64 15.29 8.41 -0.02c22.34,-24.56 17.27,-30.71 18.72,-34.94 2.69,-7.9 4.57,-3.97 7.52,-13.97 -26.21,1.37 -13.55,4.06 -27.48,14.9 4.39,4.4 0.75,1.7 7.58,4.65 6.53,2.82 0.3,-0.84 4.18,1.13l-9.29 12.97z"/>
  <path class="fil3" d="M113.49 401.13c-6.76,-5.03 -10.37,-12.8 -16.15,-21.45 -9.23,-13.81 -6.25,-12.49 -25.94,-12.08 9.18,11.81 14.95,22.5 23.11,33.17l18.98 0.36z"/>
  <path class="fil0" d="M294.42 184.08l18.98 -0.42c-4.28,-8.92 -11.92,-15.83 -14.58,-25.2l-19.2 0.05c2.25,9.32 10.48,17.32 14.81,25.56z"/>
  <path class="fil5" d="M53.17 183.82l17.41 0.68c4.09,-8.73 10.09,-18.54 16.99,-26.16l-17.54 -0.19c-5.46,7.4 -12.43,15.76 -16.86,25.67z"/>
  <path class="fil0" d="M373.63 241.21l11.56 20.84c-4.88,7.5 -8.58,11.55 -11.34,18.68 12.83,0.79 9.89,0.65 22.28,-18.68 -1.89,-4.41 -6.01,-11.36 -8.26,-14.56 -5.4,-7.7 -3.51,-5.85 -14.23,-6.28z"/>
  <path class="fil0" d="M336.44 309.37c2.26,-8.23 8.2,-13.31 11.48,-21.96l-19.27 0.07c-2.61,9.88 -8.7,11.24 -11.53,21.94l19.32 -0.05z"/>
  <path class="fil2" d="M49.9 309.4c-7.17,-8.14 -7.75,-14.02 -16.09,-21.77l-18.36 -0.14c6.16,5.94 11.84,15.19 17.06,22.06l17.39 -0.15z"/>
  <path class="fil0" d="M188.84 30.52c2.52,7.62 3.54,6.71 6.47,13.6l19.33 -0.01 -11.77 -23.42c-5.85,2.62 -0.71,0.09 -6.96,4.77 -3.09,2.32 -5.72,4.04 -7.07,5.05z"/>
  <path class="fil6" d="M144.44 43.94l17.41 0.18c3.3,-5.21 5.04,-7.1 7.95,-13.66l-2.36 -10.99c-10.26,5.32 -17.49,14.77 -23,24.46z"/>
  <rect class="fil7 str0" x="88.17" y="0.68" width="190.8" height="0.6"/>
 </g>
</svg>
